<mxfile host="app.diagrams.net" modified="2021-12-20T11:12:12.534Z" agent="5.0 (Windows NT 10.0; Win64; x64) AppleWebKit/537.36 (KHTML, like Gecko) Chrome/96.0.4664.110 Safari/537.36 Edg/96.0.1054.62" etag="2Rvl1Y40eK1hA_tiDccN" version="15.9.1" type="github">
  <diagram id="9UIVQbvjOMZu890zh175" name="Page-1">
    <mxGraphModel dx="942" dy="642" grid="1" gridSize="10" guides="1" tooltips="1" connect="1" arrows="1" fold="1" page="1" pageScale="1" pageWidth="827" pageHeight="1169" math="0" shadow="0">
      <root>
        <mxCell id="0" />
        <mxCell id="1" parent="0" />
        <mxCell id="P7dAJQ1PEXy15EzT29da-2" value="" style="endArrow=none;html=1;strokeWidth=1;entryX=0;entryY=0.5;entryDx=0;entryDy=0;entryPerimeter=0;exitX=0.5;exitY=0;exitDx=0;exitDy=0;" parent="1" source="P7dAJQ1PEXy15EzT29da-11" target="P7dAJQ1PEXy15EzT29da-1" edge="1">
          <mxGeometry width="50" height="50" relative="1" as="geometry">
            <mxPoint x="400" y="400" as="sourcePoint" />
            <mxPoint x="440" y="130" as="targetPoint" />
          </mxGeometry>
        </mxCell>
        <mxCell id="P7dAJQ1PEXy15EzT29da-3" value="" style="endArrow=none;html=1;strokeWidth=5;strokeColor=#999999;" parent="1" edge="1">
          <mxGeometry width="50" height="50" relative="1" as="geometry">
            <mxPoint x="160" y="348" as="sourcePoint" />
            <mxPoint x="640" y="348" as="targetPoint" />
          </mxGeometry>
        </mxCell>
        <mxCell id="P7dAJQ1PEXy15EzT29da-4" value="" style="verticalLabelPosition=bottom;verticalAlign=top;html=1;shape=mxgraph.basic.arc;startAngle=0.2881918027317203;endAngle=0.7110104348113153;strokeWidth=2;" parent="1" vertex="1">
          <mxGeometry x="275" y="268" width="250" height="100" as="geometry" />
        </mxCell>
        <mxCell id="P7dAJQ1PEXy15EzT29da-9" value="" style="endArrow=none;html=1;strokeColor=#999999;strokeWidth=2;exitX=1;exitY=0;exitDx=0;exitDy=0;" parent="1" source="P7dAJQ1PEXy15EzT29da-11" edge="1">
          <mxGeometry width="50" height="50" relative="1" as="geometry">
            <mxPoint x="500" y="400" as="sourcePoint" />
            <mxPoint x="400" y="70" as="targetPoint" />
          </mxGeometry>
        </mxCell>
        <mxCell id="P7dAJQ1PEXy15EzT29da-1" value="" style="shape=or;whiteSpace=wrap;html=1;strokeWidth=1;rotation=-90;" parent="1" vertex="1">
          <mxGeometry x="393.75" y="46.25" width="12.5" height="40" as="geometry" />
        </mxCell>
        <mxCell id="P7dAJQ1PEXy15EzT29da-10" value="D" style="text;html=1;strokeColor=none;fillColor=none;align=center;verticalAlign=middle;whiteSpace=wrap;rounded=0;fontFamily=Times New Roman;fontStyle=3;fontSize=14;" parent="1" vertex="1">
          <mxGeometry x="380" y="37" width="40" height="20" as="geometry" />
        </mxCell>
        <mxCell id="P7dAJQ1PEXy15EzT29da-11" value="" style="shape=partialRectangle;whiteSpace=wrap;html=1;top=0;bottom=0;fillColor=none;fontFamily=Times New Roman;fontSize=14;strokeWidth=1;fontColor=#B3B3B3;strokeColor=#999999;" parent="1" vertex="1">
          <mxGeometry x="300" y="348" width="200" height="40" as="geometry" />
        </mxCell>
        <mxCell id="P7dAJQ1PEXy15EzT29da-12" value="" style="endArrow=classic;startArrow=classic;html=1;fontFamily=Times New Roman;fontSize=14;fontColor=#B3B3B3;strokeColor=#999999;strokeWidth=2;entryX=1;entryY=0.75;entryDx=0;entryDy=0;exitX=0;exitY=0.75;exitDx=0;exitDy=0;" parent="1" source="P7dAJQ1PEXy15EzT29da-11" target="P7dAJQ1PEXy15EzT29da-11" edge="1">
          <mxGeometry width="50" height="50" relative="1" as="geometry">
            <mxPoint x="360" y="468" as="sourcePoint" />
            <mxPoint x="410" y="418" as="targetPoint" />
          </mxGeometry>
        </mxCell>
        <mxCell id="P7dAJQ1PEXy15EzT29da-13" value="D&lt;sub&gt;s&lt;/sub&gt;" style="text;html=1;strokeColor=none;fillColor=none;align=center;verticalAlign=middle;whiteSpace=wrap;rounded=0;fontFamily=Times New Roman;fontStyle=3;fontSize=14;" parent="1" vertex="1">
          <mxGeometry x="381" y="378" width="40" height="20" as="geometry" />
        </mxCell>
        <mxCell id="P7dAJQ1PEXy15EzT29da-14" value="H" style="text;html=1;strokeColor=none;fillColor=none;align=center;verticalAlign=middle;whiteSpace=wrap;rounded=0;fontFamily=Times New Roman;fontStyle=3;fontSize=14;" parent="1" vertex="1">
          <mxGeometry x="366.25" y="230" width="40" height="20" as="geometry" />
        </mxCell>
        <mxCell id="P7dAJQ1PEXy15EzT29da-15" value="Î¸&lt;sub&gt;r&lt;/sub&gt;" style="text;html=1;strokeColor=none;fillColor=none;align=center;verticalAlign=middle;whiteSpace=wrap;rounded=0;fontFamily=Times New Roman;fontStyle=3;fontSize=14;" parent="1" vertex="1">
          <mxGeometry x="400" y="160" width="40" height="20" as="geometry" />
        </mxCell>
      </root>
    </mxGraphModel>
  </diagram>
</mxfile>
